<svg xmlns="http://www.w3.org/2000/svg">

  <symbol id="logo-red" width="182" height="41" viewBox="0 0 182 41" fill="none" xmlns="http://www.w3.org/2000/svg">
    <path fill-rule="evenodd" clip-rule="evenodd" d="M0 0.010754V40.5026H19.2566C19.4975 40.5026 19.7524 40.5043 20.0189 40.5061C23 40.5258 27.4349 40.5551 30.0506 38.3442C32.6044 36.1858 32.6044 33.682 32.6044 27.5521C32.6044 21.7676 30.396 19.6092 24.3514 18.6595C26.2511 18.4004 29.9643 17.7097 31.0005 14.6016C31.8647 12.0095 31.3171 8.3854 31.0005 6.91768C30.396 4.81682 27.581 0.546041 21.1563 0.269764C14.7317 -0.00651335 4.37519 -0.0180249 0 0.010754ZM13.9891 7.00401V15.8967H16.1479C16.8963 15.8679 18.393 15.4132 18.393 13.8246V9.50777C18.393 8.12641 17.8749 6.83136 13.9891 7.00401ZM13.9891 22.2188V33.423H16.1902C17.3568 33.423 18.4794 33.0935 18.4794 31.0919V25.3734C18.4794 23.2353 18.393 22.0266 13.9891 22.2188Z" fill="black"/>
    <path d="M37.5719 0.352844H51.1443C51.1724 10.6743 51.2792 31.604 51.4815 32.7515C51.6839 33.8989 52.5213 34.1573 53.0833 34.1573L53.4205 40.6824C50.7228 40.6824 47.5194 40.0637 46.2549 39.7543C39.0893 37.7294 37.5719 34.017 37.5719 25.9174V0.352844Z" fill="black"/>
    <path d="M68.5946 0.352844H55.0222C54.9941 10.6743 54.8873 31.604 54.685 32.7515C54.4827 33.8989 53.6453 34.1573 53.0833 34.1573L52.7461 40.6824C55.4437 40.6824 58.6471 40.0637 59.9116 39.7543C67.0772 37.7294 68.5946 34.017 68.5946 25.9174V0.352844Z" fill="black"/>
    <path d="M74.7993 0.352844V40.51H86.8519V14.2534L91.9807 40.51H96.1691V19.1444L92.4935 0.352844H74.7993Z" fill="black"/>
    <path d="M117.197 0.352844V40.51H105.144V14.2534L100.016 40.51H95.8272V19.1444L99.5028 0.352844H117.197Z" fill="black"/>
    <path d="M145.979 0.266663H122.626V40.51H147.013V32.582H136.759V23.6199H145.29V16.1227H136.759V8.28087H145.979V0.266663Z" fill="black"/>
    <path fill-rule="evenodd" clip-rule="evenodd" d="M150.977 40.5967L164.851 40.5106V22.3278C166.115 22.2703 168.677 22.5001 168.815 23.8789C168.953 25.2577 169.103 35.5412 169.16 40.5106H182V26.895C182 23.6204 180.88 20.432 174.589 19.3979C177.002 19.4266 181.828 18.3293 181.828 13.7104V8.71228C181.828 5.43707 179.415 0.00807908 167.954 0.266615H150.977V40.5967ZM164.765 7.4346V16.3089H166.92C167.666 16.2802 169.16 15.8264 169.16 14.2411V9.9332C169.16 8.55469 168.643 7.26231 164.765 7.4346Z" fill="black"/>
  </symbol>

    <symbol id="boot" viewBox="0 0 20 15" fill="none">
        <path
            d="M2.11787 5.03919L6.54373 7.96018M7.31939 8.48504C9.0076 9.64888 12.9042 12.077 14.9848 12.4786C17.0654 12.8802 18.5133 12.6459 18.9772 12.4786M4.07985 2.30075C4.49049 2.71913 5.31635 3.75212 5.3346 4.53714C5.35285 5.32216 4.9924 6.26387 4.80989 6.6366M5.08365 1L1 6.22584L11.3118 12.7753C12.2471 13.2697 14.5787 14.1992 16.4221 13.9619C18.2654 13.7246 18.9087 13.0719 19 12.7753V11.8853C18.1483 11.3224 16.1346 9.87252 14.8935 8.57633C13.6525 7.28013 12.2776 5.10004 11.7452 4.17202C11.6084 3.95142 11.4715 3.29572 12.019 2.43768M5.10646 1.02282C5.28137 1.70743 5.8365 3.22269 6.65779 3.80689C7.68441 4.53714 10.0114 4.78816 11.5399 4.19484M13.3422 5.70097L11.5627 6.86481M14.0951 6.68224L12.3156 7.84608M14.8023 7.61787L13.1825 8.66761"
            stroke-linecap="round" stroke-linejoin="round" />
    </symbol>

    <symbol id="cart" viewBox="0 0 22 18" fill="none">
        <path
            d="M1.31 8.242C1.27324 8.09462 1.27054 7.9408 1.3021 7.79222C1.33366 7.64363 1.39866 7.50419 1.49215 7.38448C1.58565 7.26477 1.70519 7.16792 1.8417 7.10131C1.97821 7.03469 2.1281 7.00004 2.28 7H19.72C19.8719 7.00004 20.0218 7.03469 20.1583 7.10131C20.2948 7.16792 20.4143 7.26477 20.5078 7.38448C20.6013 7.50419 20.6663 7.64363 20.6979 7.79222C20.7295 7.9408 20.7268 8.09462 20.69 8.242L18.879 15.485C18.7708 15.9177 18.5212 16.3018 18.1697 16.5763C17.8182 16.8508 17.385 16.9999 16.939 17H5.061C4.61501 16.9999 4.18183 16.8508 3.83033 16.5763C3.47882 16.3018 3.22915 15.9177 3.121 15.485L1.31 8.243V8.242Z"
            stroke-width="2" stroke-linejoin="round" />
        <path d="M8 11V13" stroke-width="2" stroke-linecap="round" />
        <path d="M14 11V13" stroke-width="2" stroke-linecap="round" />
        <path d="M5 7L9 1" stroke-width="2" stroke-linecap="round" />
        <path d="M17 7L13 1" stroke-width="2" stroke-linecap="round" />
    </symbol>

    <symbol id="delivery" viewBox="0 0 15 15">
        <path d="M1.875 7.5H7.5V8.4375H1.875V7.5Z" fill="white" />
        <path d="M0.9375 5.15625H5.625V6.09375H0.9375V5.15625Z" fill="white" />
        <path
            d="M14.0245 7.78406L12.6182 4.50281C12.5821 4.41847 12.5221 4.34659 12.4455 4.29609C12.3689 4.24559 12.2792 4.2187 12.1874 4.21875H10.7812V3.28125C10.7812 3.15693 10.7318 3.0377 10.6439 2.94979C10.556 2.86189 10.4368 2.8125 10.3124 2.8125H2.81244V3.75H9.84369V9.63562C9.6301 9.75965 9.44317 9.92474 9.29369 10.1214C9.14421 10.318 9.03514 10.5423 8.97276 10.7812H6.02713C5.91304 10.3394 5.64171 9.95429 5.264 9.69816C4.88629 9.44202 4.42814 9.33244 3.97541 9.38994C3.52269 9.44745 3.10647 9.66809 2.80479 10.0105C2.50311 10.3529 2.33667 10.7936 2.33667 11.25C2.33667 11.7064 2.50311 12.1471 2.80479 12.4895C3.10647 12.8319 3.52269 13.0526 3.97541 13.1101C4.42814 13.1676 4.88629 13.058 5.264 12.8018C5.64171 12.5457 5.91304 12.1606 6.02713 11.7188H8.97276C9.07473 12.121 9.30793 12.4779 9.63546 12.7327C9.963 12.9876 10.3662 13.126 10.7812 13.126C11.1962 13.126 11.5994 12.9876 11.9269 12.7327C12.2545 12.4779 12.4877 12.121 12.5896 11.7188H13.5937C13.718 11.7188 13.8372 11.6694 13.9251 11.5815C14.0131 11.4935 14.0624 11.3743 14.0624 11.25V7.96875C14.0625 7.90525 14.0495 7.84241 14.0245 7.78406ZM4.21869 12.1875C4.03327 12.1875 3.85202 12.1325 3.69785 12.0295C3.54368 11.9265 3.42351 11.7801 3.35256 11.6088C3.2816 11.4375 3.26303 11.249 3.29921 11.0671C3.33538 10.8852 3.42467 10.7182 3.55578 10.5871C3.68689 10.456 3.85394 10.3667 4.0358 10.3305C4.21765 10.2943 4.40615 10.3129 4.57746 10.3839C4.74876 10.4548 4.89518 10.575 4.9982 10.7292C5.10121 10.8833 5.15619 11.0646 5.15619 11.25C5.15595 11.4986 5.05709 11.7369 4.88133 11.9126C4.70557 12.0884 4.46726 12.1873 4.21869 12.1875ZM10.7812 5.15625H11.8781L12.8831 7.5H10.7812V5.15625ZM10.7812 12.1875C10.5958 12.1875 10.4145 12.1325 10.2603 12.0295C10.1062 11.9265 9.98601 11.7801 9.91506 11.6088C9.8441 11.4375 9.82553 11.249 9.86171 11.0671C9.89788 10.8852 9.98717 10.7182 10.1183 10.5871C10.2494 10.456 10.4164 10.3667 10.5983 10.3305C10.7802 10.2943 10.9687 10.3129 11.14 10.3839C11.3113 10.4548 11.4577 10.575 11.5607 10.7292C11.6637 10.8833 11.7187 11.0646 11.7187 11.25C11.7184 11.4986 11.6196 11.7369 11.4438 11.9126C11.2681 12.0884 11.0298 12.1873 10.7812 12.1875ZM13.1249 10.7812H12.5896C12.4864 10.3797 12.2528 10.0238 11.9255 9.76934C11.5982 9.51485 11.1958 9.37615 10.7812 9.375V8.4375H13.1249V10.7812Z"
            fill="white" />
    </symbol>

    <symbol id="facebook" viewBox="0 0 15 15">
        <g>
            <path
                d="M14.25 0c.328 0 .594.265.594.594V14.25a.593.593 0 0 1-.594.594h-4.01v-5.75h1.93l.29-2.24h-2.22v-1.43c0-.65.18-1.091 1.11-1.091h1.187V2.33c-.206-.027-.909-.089-1.729-.089-1.71 0-2.881 1.045-2.881 2.962v1.651H5.99v2.242h1.936v5.748H.594A.593.593 0 0 1 0 14.25V.594C0 .265.265 0 .594 0z" />
        </g>
    </symbol>

    <symbol id="instagram" viewBox="0 0 18 18">
        <g>
            <path
                d="M16 0c1.1 0 2 .9 2 2v14c0 1.101-.9 2-2 2H2c-1.1 0-2-.899-2-2V2C0 .9.9 0 2 0zM5.068 12.9a5.54 5.54 0 0 1-1.623-3.916c0-.338.043-.664.104-.984H2v7.216a.69.69 0 0 0 .693.69h12.614a.69.69 0 0 0 .693-.69V8h-1.581c.06.32.103.646.103.984A5.539 5.539 0 0 1 5.068 12.9zm1.469-1.469a3.46 3.46 0 1 0 4.894-4.894 3.46 3.46 0 0 0-4.894 4.894zM15.307 5A.694.694 0 0 0 16 4.307V2.691A.692.692 0 0 0 15.306 2h-1.615a.691.691 0 0 0-.691.691v1.617a.694.694 0 0 0 .692.692z" />
        </g>
    </symbol>

    <symbol id="telegram" viewBox="0 0 20 17">
        <g>
            <path
                d="M18.665.11L.935 6.947C-.275 7.433-.268 8.108.713 8.41l4.552 1.42 10.532-6.645c.498-.303.953-.14.579.192l-8.533 7.701H7.84l.002.001-.314 4.692c.46 0 .663-.21.92-.46l2.212-2.15 4.599 3.397c.848.467 1.457.227 1.668-.785l3.019-14.228c.309-1.239-.473-1.8-1.282-1.434z" />
        </g>
    </symbol>

</svg>
