<svg width="12" height="12" viewBox="0 0 12 12" fill="none" xmlns="http://www.w3.org/2000/svg">
    <path
        d="M6.6 3.6C7.07739 3.6 7.53523 3.78964 7.87279 4.12721C8.21036 4.46477 8.4 4.92261 8.4 5.4C8.4 5.55913 8.46321 5.71174 8.57574 5.82426C8.68826 5.93679 8.84087 6 9 6C9.15913 6 9.31174 5.93679 9.42426 5.82426C9.53679 5.71174 9.6 5.55913 9.6 5.4C9.6 4.60435 9.28393 3.84129 8.72132 3.27868C8.15871 2.71607 7.39565 2.4 6.6 2.4C6.44087 2.4 6.28826 2.46321 6.17574 2.57574C6.06321 2.68826 6 2.84087 6 3C6 3.15913 6.06321 3.31174 6.17574 3.42426C6.28826 3.53679 6.44087 3.6 6.6 3.6Z"
        fill="black" />
    <path
        d="M6.6 1.2C7.71391 1.2 8.7822 1.6425 9.56985 2.43015C10.3575 3.2178 10.8 4.28609 10.8 5.4C10.8 5.55913 10.8632 5.71174 10.9757 5.82426C11.0883 5.93679 11.2409 6 11.4 6C11.5591 6 11.7117 5.93679 11.8243 5.82426C11.9368 5.71174 12 5.55913 12 5.4C12 3.96783 11.4311 2.59432 10.4184 1.58162C9.40568 0.568927 8.03217 0 6.6 0C6.44087 0 6.28826 0.0632141 6.17574 0.175736C6.06321 0.288258 6 0.44087 6 0.6C6 0.75913 6.06321 0.911742 6.17574 1.02426C6.28826 1.13679 6.44087 1.2 6.6 1.2ZM11.85 8.346C11.817 8.24968 11.76 8.16334 11.6845 8.09511C11.6089 8.02689 11.5172 7.97901 11.418 7.956L7.818 7.134C7.72028 7.11184 7.61857 7.11451 7.52215 7.14176C7.42573 7.16901 7.33767 7.21997 7.266 7.29C7.182 7.368 7.176 7.374 6.786 8.118C5.49192 7.52169 4.455 6.48051 3.864 5.184C4.626 4.8 4.632 4.8 4.71 4.71C4.78003 4.63833 4.83099 4.55027 4.85824 4.45385C4.88549 4.35743 4.88816 4.25572 4.866 4.158L4.044 0.6C4.02099 0.500818 3.97311 0.409123 3.90489 0.333547C3.83666 0.257971 3.75032 0.201001 3.654 0.168C3.51388 0.117954 3.36919 0.0817802 3.222 0.0599999C3.07035 0.0248371 2.9156 0.00473961 2.76 0C2.028 0 1.32599 0.290785 0.808385 0.808385C0.290785 1.32599 0 2.028 0 2.76C0.00317515 5.20963 0.977692 7.55801 2.70984 9.29016C4.44199 11.0223 6.79037 11.9968 9.24 12C9.60245 12 9.96135 11.9286 10.2962 11.7899C10.6311 11.6512 10.9353 11.4479 11.1916 11.1916C11.4479 10.9353 11.6512 10.6311 11.7899 10.2962C11.9286 9.96135 12 9.60245 12 9.24C12.0002 9.08728 11.9881 8.9348 11.964 8.784C11.9388 8.63497 11.9006 8.48841 11.85 8.346ZM9.24 10.8C7.10815 10.7984 5.06406 9.95083 3.55662 8.44338C2.04917 6.93594 1.20159 4.89185 1.2 2.76C1.20158 2.34675 1.36644 1.95087 1.65866 1.65866C1.95087 1.36644 2.34675 1.20158 2.76 1.2H2.958L3.6 3.984L3.276 4.152C2.76 4.422 2.352 4.638 2.568 5.106C2.91973 6.10175 3.48886 7.00664 4.23404 7.75493C4.97922 8.50322 5.88173 9.07612 6.876 9.432C7.38 9.636 7.578 9.258 7.848 8.736L8.022 8.406L10.8 9.042V9.24C10.7984 9.65325 10.6336 10.0491 10.3413 10.3413C10.0491 10.6336 9.65325 10.7984 9.24 10.8Z"
        fill="black" />
</svg>