<svg width="577" height="129" viewBox="0 0 577 129" fill="none" xmlns="http://www.w3.org/2000/svg">
<path fill-rule="evenodd" clip-rule="evenodd" d="M0 0.0340936V128.407H61.0497C61.8136 128.407 62.6216 128.412 63.4666 128.418C72.9177 128.48 86.9775 128.573 95.2704 121.564C103.367 114.721 103.367 106.783 103.367 87.3493C103.367 69.0104 96.3655 62.1675 77.2019 59.1566C83.2247 58.3355 94.9967 56.1458 98.2818 46.292C101.022 38.074 99.2857 26.5845 98.2818 21.9313C96.3655 15.2709 87.4407 1.73113 67.0726 0.85524C46.7044 -0.0206495 13.8708 -0.0571449 0 0.0340936ZM44.35 22.205V50.3977H51.1942C53.5668 50.3065 58.3121 48.8649 58.3121 43.8285V30.1428C58.3121 25.7634 56.6695 21.6577 44.35 22.205ZM44.35 70.441V105.962H51.3284C55.0269 105.962 58.5858 104.917 58.5858 98.5717V80.442C58.5858 73.6636 58.3121 69.8316 44.35 70.441Z" fill="white"/>
<path d="M119.115 1.11865H162.145C162.234 33.841 162.572 100.195 163.214 103.833C163.855 107.471 166.51 108.29 168.292 108.29L169.361 128.977C160.808 128.977 150.652 127.015 146.643 126.034C123.926 119.615 119.115 107.845 119.115 82.1667V1.11865Z" fill="white"/>
<path d="M217.468 1.11865H174.439C174.35 33.841 174.011 100.195 173.37 103.833C172.728 107.471 170.073 108.29 168.292 108.29L167.223 128.977C175.775 128.977 185.931 127.015 189.94 126.034C212.657 119.615 217.468 107.845 217.468 82.1667V1.11865Z" fill="white"/>
<path d="M237.138 1.11865V128.43H275.349V45.188L291.609 128.43H304.888V60.6939L293.235 1.11865H237.138Z" fill="white"/>
<path d="M371.553 1.11865V128.43H333.342V45.188L317.083 128.43H303.804V60.6939L315.457 1.11865H371.553Z" fill="white"/>
<path d="M462.802 0.845215H388.765V128.43H466.08V103.295H433.57V74.8826H460.616V51.1142H433.57V26.2529H462.802V0.845215Z" fill="white"/>
<path fill-rule="evenodd" clip-rule="evenodd" d="M478.648 128.705L522.633 128.432V70.7868C526.64 70.6046 534.763 71.3332 535.2 75.7044C535.637 80.0756 536.111 112.678 536.293 128.432H577V85.2664C577 74.8848 573.448 64.7764 553.505 61.498C561.154 61.589 576.454 58.1103 576.454 43.4667V27.6211C576.454 17.2376 568.804 0.0259063 532.468 0.845552H478.648V128.705ZM522.36 23.5703V51.7049H529.19C531.558 51.6138 536.293 50.1752 536.293 45.1492V31.4917C536.293 27.1214 534.654 23.0241 522.36 23.5703Z" fill="white"/>
</svg>
