<svg width="13" height="13" viewBox="0 0 13 13" fill="none" xmlns="http://www.w3.org/2000/svg">
<path d="M12.4329 2.05862L10.7023 0.329834C10.491 0.11861 10.2083 0 9.90929 0C9.61029 0 9.32754 0.116985 9.11629 0.329834L7.25241 2.19023C7.04116 2.40145 6.92253 2.68579 6.92253 2.98475C6.92253 3.28534 7.03953 3.56643 7.25241 3.77928L8.70841 5.23672C8.37672 6.00945 7.90014 6.71154 7.30441 7.30509C6.70803 7.90464 6.0109 8.37745 5.2374 8.71216L3.78139 7.25472C3.57014 7.04349 3.28739 6.92488 2.98839 6.92488C2.84091 6.92434 2.6948 6.95323 2.55863 7.00987C2.42246 7.06651 2.29897 7.14975 2.19538 7.25472L0.329877 9.11511C0.118626 9.32633 0 9.61067 0 9.90964C0 10.2102 0.117001 10.4913 0.329877 10.7042L2.05888 12.4329C2.41964 12.7937 2.91689 13 3.42714 13C3.53277 13 3.63514 12.9919 3.73914 12.974C5.89065 12.6198 8.02591 11.4743 9.75004 9.75203C11.4726 8.0265 12.6166 5.89151 12.9741 3.73866C13.0764 3.12773 12.8717 2.49894 12.4329 2.05862ZM11.8219 3.54531C11.505 5.46094 10.4748 7.3717 8.92291 8.92339C7.37103 10.4751 5.46165 11.5052 3.54577 11.822C3.30526 11.8626 3.05826 11.7814 2.88276 11.6076L1.18463 9.90964L2.98514 8.10774L4.94652 10.0721L5.29752 9.94213C6.36179 9.55089 7.32824 8.93294 8.1299 8.1311C8.93155 7.32927 9.54925 6.36273 9.94017 5.29846L10.0702 4.94751L8.10716 2.98638L9.90767 1.18448L11.6058 2.88239C11.7813 3.05787 11.8626 3.30484 11.8219 3.54531Z" fill="black"/>
</svg>
