<svg xmlns="http://www.w3.org/2000/svg" width="46" height="27" viewBox="0 0 46 27"><g><g><path fill="#fff" d="M45.593 12.494c.26.267.407.629.407 1.006 0 .378-.146.74-.407 1.006L33.806 26.583c-.26.267-.614.417-.982.417-.369 0-.722-.15-.983-.417a1.441 1.441 0 0 1-.407-1.006c0-.378.147-.74.407-1.007l9.416-9.647-39.866.002a1.362 1.362 0 0 1-.984-.417A1.429 1.429 0 0 1 0 13.5a1.455 1.455 0 0 1 .407-1.008 1.39 1.39 0 0 1 .984-.417l39.866.002-9.416-9.647a1.441 1.441 0 0 1-.406-1.007c0-.377.146-.74.406-1.006.26-.267.614-.417.983-.417.368 0 .721.15.982.417z"/></g></g></svg>