<svg xmlns="http://www.w3.org/2000/svg" width="46" height="27" viewBox="0 0 46 27">
    <g>
        <g>
            <path fill="#fff"
                d="M.407 12.494C.147 12.76 0 13.123 0 13.5c0 .378.146.74.407 1.006l11.787 12.077c.26.267.614.417.982.417.369 0 .722-.15.983-.417.26-.267.407-.629.407-1.006 0-.378-.147-.74-.407-1.007l-9.416-9.647 39.866.002a1.362 1.362 0 0 0 .984-.417A1.429 1.429 0 0 0 46 13.5a1.455 1.455 0 0 0-.407-1.008 1.39 1.39 0 0 0-.984-.417l-39.866.002 9.416-9.647c.26-.267.407-.63.407-1.007 0-.377-.147-.74-.407-1.006A1.373 1.373 0 0 0 13.176 0c-.368 0-.721.15-.982.417z" />
        </g>
    </g>
</svg>