<?xml version="1.0" standalone="no"?>
<!DOCTYPE svg PUBLIC "-//W3C//DTD SVG 20010904//EN"
 "http://www.w3.org/TR/2001/REC-SVG-20010904/DTD/svg10.dtd">
<svg version="1.0" xmlns="http://www.w3.org/2000/svg"
 width="700.000000pt" height="700.000000pt" viewBox="0 0 700.000000 700.000000"
 preserveAspectRatio="xMidYMid meet">
<metadata>
Created by potrace 1.14, written by Peter Selinger 2001-2017
</metadata>
<g transform="translate(0.000000,700.000000) scale(0.100000,-0.100000)"
fill="#000000" stroke="none">
<path d="M760 3517 l0 -3485 1993 2 c1095 2 2023 5 2061 9 75 7 151 15 206 22
19 3 54 7 77 10 75 9 267 53 368 86 120 38 264 107 363 173 85 56 231 196 290
276 111 152 184 358 212 600 6 52 13 112 15 133 17 143 25 946 12 1144 -11
172 -34 297 -80 443 -103 329 -297 530 -667 693 -32 14 -221 78 -245 83 -5 1
-46 11 -90 22 -70 17 -189 42 -279 56 -37 7 -46 16 -15 17 40 1 102 12 252 44
120 26 307 94 407 148 388 209 532 517 524 1122 -2 164 -12 319 -29 425 -2 14
-7 45 -10 70 -15 105 -45 239 -65 290 -115 292 -363 581 -654 764 -149 95
-411 205 -549 232 -10 2 -26 5 -35 8 -9 3 -32 8 -51 11 -19 3 -37 7 -40 9 -3
2 -33 7 -66 11 -33 4 -71 9 -85 11 -122 16 -258 21 -1125 40 -115 2 -769 7
-1452 10 l-1243 7 0 -3486z m2786 2258 c215 -40 334 -134 363 -288 13 -73 10
-904 -4 -957 -31 -119 -109 -194 -245 -241 -58 -19 -88 -22 -273 -23 -114 -1
-211 1 -215 4 -13 8 -10 1514 2 1522 18 12 282 0 372 -17z m-86 -2599 c287
-18 417 -99 467 -293 11 -47 14 -1291 2 -1353 -24 -127 -88 -212 -188 -252
-52 -21 -75 -23 -316 -26 l-261 -4 0 964 0 963 66 5 c68 5 79 5 230 -4z"/>
</g>
</svg>
