<?xml version="1.0" encoding="utf-8"?>
<!-- Generator: Adobe Illustrator 26.0.2, SVG Export Plug-In . SVG Version: 6.00 Build 0)  -->
<svg version="1.1" id="Слой_1" xmlns="http://www.w3.org/2000/svg" xmlns:xlink="http://www.w3.org/1999/xlink" x="0px" y="0px"
	 viewBox="0 0 256 256" style="enable-background:new 0 0 256 256;" xml:space="preserve">
<style type="text/css">
	.st0{fill:#ffffff;}
</style>
<desc>Created with Fabric.js 1.7.22</desc>
<g transform="translate(128 128) scale(0.72 0.72)">
	<g transform="translate(-175.05 -175.05000000000004) scale(3.89 3.89)">
		<path class="st0" d="M65.2,68.2c-0.4,0-0.7-0.1-1-0.4L23.8,27c-0.6-0.6-0.6-1.5,0-2.1c0.6-0.6,1.5-0.6,2.1,0l40.4,40.7
			c0.6,0.6,0.6,1.5,0,2.1C65.9,68,65.6,68.2,65.2,68.2z"/>
		<ellipse class="st0" cx="59.3" cy="39" rx="1.5" ry="1.5"/>
		<path class="st0" d="M59.1,62.1H28.7c-3,0-5.5-2.5-5.5-5.5V37.8c0-3.1,2.5-5.5,5.5-5.5h2.2c0.3,0,0.5,0,0.8-0.1
			c0.8-0.3,1.6,0.1,1.9,0.9c0.3,0.8-0.1,1.6-0.9,1.9c-0.6,0.2-1.2,0.3-1.8,0.3h-2.2c-1.4,0-2.6,1.2-2.6,2.6v18.8
			c0,1.5,1.2,2.6,2.6,2.6h30.4c0.8,0,1.5,0.7,1.5,1.5S59.9,62.1,59.1,62.1z"/>
		<path class="st0" d="M45,57.1c-5.9,0-10.6-4.8-10.6-10.7c0-2.9,1.1-5.5,3.1-7.6c0.6-0.6,1.5-0.6,2.1,0c0.6,0.6,0.6,1.5,0,2.1
			c-1.5,1.5-2.3,3.4-2.3,5.5c0,4.3,3.5,7.8,7.7,7.8c2.1,0,4-0.8,5.4-2.3c0.6-0.6,1.5-0.6,2.1,0c0.6,0.6,0.6,1.5,0,2.1
			C50.5,55.9,47.8,57.1,45,57.1z"/>
		<path class="st0" d="M64.6,60.4c-0.3,0-0.6-0.1-0.8-0.3c-0.7-0.5-0.8-1.4-0.3-2c0.3-0.5,0.5-1,0.5-1.5V37.8c0-1.5-1.2-2.6-2.6-2.6
			h-2.2c-1.9,0-3.7-1.1-4.6-2.8l-0.7-1.3c-0.6-1.1-1.7-1.7-2.9-1.7H39c-0.9,0-1.8,0.4-2.5,1.1c-0.5,0.6-1.4,0.7-2.1,0.2
			c-0.6-0.5-0.7-1.4-0.2-2.1c1.2-1.4,2.9-2.2,4.7-2.2H51c2.3,0,4.4,1.3,5.4,3.3l0.7,1.3c0.4,0.8,1.2,1.2,2,1.2h2.2
			c3,0,5.5,2.5,5.5,5.5v18.8c0,1.2-0.4,2.3-1,3.2C65.5,60.2,65,60.4,64.6,60.4z"/>
		<path class="st0" d="M54,49.6c-0.1,0-0.2,0-0.3,0c-0.8-0.2-1.3-0.9-1.2-1.7c0.1-0.5,0.1-1,0.1-1.5c0-4.3-3.5-7.8-7.7-7.8
			c-0.5,0-1,0.1-1.5,0.2c-0.8,0.2-1.6-0.3-1.7-1.1c-0.2-0.8,0.3-1.6,1.1-1.7c0.7-0.1,1.4-0.2,2.1-0.2c5.9,0,10.6,4.8,10.6,10.7
			c0,0.7-0.1,1.4-0.2,2C55.3,49.1,54.7,49.6,54,49.6z"/>
	</g>
</g>
</svg>
